<svg width="24" height="24" viewBox="0 0 24 24" fill="none" xmlns="http://www.w3.org/2000/svg">
<path fill-rule="evenodd" clip-rule="evenodd" d="M15 12.9125V18C15 18.3788 14.786 18.725 14.4472 18.8944L10.4472 20.8944C9.78232 21.2269 9 20.7434 9 20V12.9125L2.22605 4.63324C1.69183 3.98031 2.15638 3 3 3H21C21.8436 3 22.3082 3.98031 21.774 4.63324L15 12.9125ZM13 17.382V12.5556C13 12.3247 13.0799 12.101 13.226 11.9223L18.8898 5H5.11025L10.774 11.9223C10.9201 12.101 11 12.3247 11 12.5556V18.382L13 17.382Z" fill="#92929D"/>
</svg>
